{"title":"BBC Ocean Giants S01E03 Voices of the Sea 720p w/subs [aulaoron]","uid":6636526,"size":1063386396,"categoryP":"video","categoryS":"hd___tv_shows","magnet":"?xt=urn:btih:67852009775b11ae0220bf8a55510cd20fe6efb0&amp;dn=BBC+Ocean+Giants+S01E03+Voices+of+the+Sea+720p+w%2Fsubs+%5Baulaoron%5D&amp;tr=udp%3A%2F%2Ftracker.openbittorrent.com%3A80&amp;tr=udp%3A%2F%2Fopen.demonii.com%3A1337&amp;tr=udp%3A%2F%2Ftracker.coppersurfer.tk%3A6969&amp;tr=udp%3A%2F%2Fexodus.desync.com%3A6969","seeders":0,"leechers":1,"uploader":"aularon","files":-1,"time":1314580274,"description":"BBC Ocean Giants: S01E03 Voices of the Sea. 720pp x264 aac mp4 w/subtitles [aularon]\n\n- - -\nSynopsis\n- - -\nWhales and dolphins are nature's supreme vocalists, with a repertoire to put an opera singer to shame. The mighty sperm whale produces deafening clicks in its blowhole which it uses to locate giant squid two miles down in the ocean abyss, while migrating narwhals use similar sounds to pinpoint vital breathing holes in Arctic ice-floes.\n\nThe pink boto dolphin creates bat-like ultrasonic clicks to 'see with sound' and to catch fish in the murky waters of the Amazon River, and also uses whistles and chirps for social conversations.\n\nKiller whales in the North Sea use wolf-like howls to round up the herring shoals which they feed on, and they and other dolphins also use percussive tail slaps and splashing leaps to signal to each other. One group of bottlenose dolphins in Brazil has even learned to communicate with fishermen in a unique partnership.\n\nBut the most famous and mysterious voice of all the Ocean Giants surely belongs to male humpback whales, whose haunting operatic performances may last several hours and seem to be about singing purely for the sheer pleasure of making music.\n\n\n- - -\nURL\n- - -     &lt;a href=&quot;\nhttp://www.bbc.co.uk/programmes/b01452jz&quot; rel=&quot;nofollow&quot; target=&quot;_NEW&quot;&gt;\nhttp://www.bbc.co.uk/programmes/b01452jz&lt;/a&gt;\n\n\n- - -\nTechnical Details\n- - -\nGeneral\nComplete name                    : BBC.Ocean.Giants.S01E03.Voices.of.the.Sea/Ocean_Giants_-_3._Voices_of_the_Sea_b01452jz_default.mp4\nFormat                           : MPEG-4\nFormat profile                   : Base Media\nCodec ID                         : isom\nFile size                        : 1 014 MiB\nDuration                         : 58mn 32s\nOverall bit rate                 : 2 422 Kbps\nMovie name                       : Ocean Giants: Voices of the Sea\nAlbum                            : Ocean Giants\nTrack name/Position              : 3\nTrack name/Total                 : 0\nPerformer                        : Ocean Giants\nGenre                            : Factual,Science &amp; Nature\nRecorded date                    : 2011-08-28T21:00:00+01:00\nTagged date                      : UTC 2011-08-28 23:06:30\nWriting application              : Lavf53.6.0\nCover                            : Yes\nComment                          : Recorded using get_iplayer, by Aularon.\nrtng                             : 2\nstik                             : 1\ndesc                             : Documentary taking a look at whales and dolphins, nature's supreme vocalists. Species on show include the mighty sperm whale and the Amazon boto dolphin.\ntvnn                             : BBC One\ntvsh                             : Ocean Giants\ntven                             : b01452jz\ncatg                             : Factual,Science &amp; Nature\ntves                             : 3\n\nVideo\nID                               : 1\nFormat                           : AVC\nFormat/Info                      : Advanced Video Codec\nFormat profile                   : &lt;a class=&quot;__cf_email__&quot; href=&quot;/cdn-cgi/l/email-protection&quot; data-cfemail=&quot;fcb4959b94bcb0c8d2cd&quot;&gt;[email&amp;#160;protected]&lt;/a&gt;&lt;script cf-hash='f9e31' type=&quot;text/javascript&quot;&gt;\n/* &lt;![CDATA[ */!function(){try{var t=&quot;currentScript&quot;in document?document.currentScript:function(){for(var t=document.getElementsByTagName(&quot;script&quot;),e=t.length;e--;)if(t[e].getAttribute(&quot;cf-hash&quot;))return t[e]}();if(t&amp;&amp;t.previousSibling){var e,r,n,i,c=t.previousSibling,a=c.getAttribute(&quot;data-cfemail&quot;);if(a){for(e=&quot;&quot;,r=parseInt(a.substr(0,2),16),n=2;a.length-n;n+=2)i=parseInt(a.substr(n,2),16)^r,e+=String.fromCharCode(i);e=document.createTextNode(e),c.parentNode.replaceChild(e,c)}}}catch(u){}}();/* ]]&gt; */&lt;/script&gt;\nFormat settings, CABAC           : Yes\nFormat settings, ReFrames        : 6 frames\nCodec ID                         : avc1\nCodec ID/Info                    : Advanced Video Coding\nDuration                         : 58mn 32s\nBit rate mode                    : Variable\nBit rate                         : 2 322 Kbps\nMaximum bit rate                 : 3 500 Kbps\nWidth                            : 1 280 pixels\nHeight                           : 720 pixels\nDisplay aspect ratio             : 16:9\nFrame rate mode                  : Constant\nFrame rate                       : 25.000 fps\nStandard                         : PAL\nColor space                      : YUV\nChroma subsampling               : 4:2:0\nBit depth                        : 8 bits\nScan type                        : Progressive\nBits/(Pixel*Frame)               : 0.101\nStream size                      : 972 MiB (96%)\n\nAudio\nID                               : 2\nFormat                           : AAC\nFormat/Info                      : Advanced Audio Codec\nFormat profile                   : HE-AAC / LC\nCodec ID                         : 40\nDuration                         : 58mn 32s\nBit rate mode                    : Constant\nBit rate                         : 96.0 Kbps\nChannel(s)                       : 2 channels\nChannel positions                : Front: L R\nSampling rate                    : 48.0 KHz / 24.0 KHz\nCompression mode                 : Lossy\nStream size                      : 39.7 MiB (4%)\n\n","torrent":{"xt":"urn:btih:67852009775b11ae0220bf8a55510cd20fe6efb0","amp;dn":"BBC+Ocean+Giants+S01E03+Voices+of+the+Sea+720p+w%2Fsubs+%5Baulaoron%5D","amp;tr":["udp%3A%2F%2Ftracker.openbittorrent.com%3A80","udp%3A%2F%2Fopen.demonii.com%3A1337","udp%3A%2F%2Ftracker.coppersurfer.tk%3A6969","udp%3A%2F%2Fexodus.desync.com%3A6969"],"infoHash":"67852009775b11ae0220bf8a55510cd20fe6efb0","infoHashBuffer":{"type":"Buffer","data":[103,133,32,9,119,91,17,174,2,32,191,138,85,81,12,210,15,230,239,176]},"announce":[],"urlList":[]}}